<svg width="340" height="16" viewBox="0 0 340 16" fill="none" xmlns="http://www.w3.org/2000/svg">
<path d="M339.354 8.35355C339.549 8.15829 339.549 7.84171 339.354 7.64645L336.172 4.46447C335.976 4.2692 335.66 4.2692 335.464 4.46447C335.269 4.65973 335.269 4.97631 335.464 5.17157L338.293 8L335.464 10.8284C335.269 11.0237 335.269 11.3403 335.464 11.5355C335.66 11.7308 335.976 11.7308 336.172 11.5355L339.354 8.35355ZM0 8.5H4.03571V7.5H0V8.5ZM12.1071 8.5H20.1786V7.5H12.1071V8.5ZM28.25 8.5H36.3214V7.5H28.25V8.5ZM44.3929 8.5H52.4643V7.5H44.3929V8.5ZM60.5357 8.5H68.6071V7.5H60.5357V8.5ZM76.6786 8.5H84.75V7.5H76.6786V8.5ZM92.8214 8.5H100.893V7.5H92.8214V8.5ZM108.964 8.5H117.036V7.5H108.964V8.5ZM125.107 8.5H133.179V7.5H125.107V8.5ZM141.25 8.5H149.321V7.5H141.25V8.5ZM157.393 8.5H165.464V7.5H157.393V8.5ZM173.536 8.5H181.607V7.5H173.536V8.5ZM189.679 8.5H197.75V7.5H189.679V8.5ZM205.821 8.5H213.893V7.5H205.821V8.5ZM221.964 8.5H230.036V7.5H221.964V8.5ZM238.107 8.5H246.179V7.5H238.107V8.5ZM254.25 8.5H262.321V7.5H254.25V8.5ZM270.393 8.5H278.464V7.5H270.393V8.5ZM286.536 8.5H294.607V7.5H286.536V8.5ZM302.679 8.5H310.75V7.5H302.679V8.5ZM318.821 8.5H326.893V7.5H318.821V8.5ZM334.964 8.5H339V7.5H334.964V8.5ZM339.707 8.70711C340.098 8.31658 340.098 7.68342 339.707 7.29289L333.343 0.928932C332.953 0.538408 332.319 0.538408 331.929 0.928932C331.538 1.31946 331.538 1.95262 331.929 2.34315L337.586 8L331.929 13.6569C331.538 14.0474 331.538 14.6805 331.929 15.0711C332.319 15.4616 332.953 15.4616 333.343 15.0711L339.707 8.70711ZM0 9H4.03571V7H0V9ZM12.1071 9H20.1786V7H12.1071V9ZM28.25 9H36.3214V7H28.25V9ZM44.3929 9H52.4643V7H44.3929V9ZM60.5357 9H68.6071V7H60.5357V9ZM76.6786 9H84.75V7H76.6786V9ZM92.8214 9H100.893V7H92.8214V9ZM108.964 9H117.036V7H108.964V9ZM125.107 9H133.179V7H125.107V9ZM141.25 9H149.321V7H141.25V9ZM157.393 9H165.464V7H157.393V9ZM173.536 9H181.607V7H173.536V9ZM189.679 9H197.75V7H189.679V9ZM205.821 9H213.893V7H205.821V9ZM221.964 9H230.036V7H221.964V9ZM238.107 9H246.179V7H238.107V9ZM254.25 9H262.321V7H254.25V9ZM270.393 9H278.464V7H270.393V9ZM286.536 9H294.607V7H286.536V9ZM302.679 9H310.75V7H302.679V9ZM318.821 9H326.893V7H318.821V9ZM334.964 9H339V7H334.964V9Z" fill="#077254"/>
</svg>
